<?xml version="1.0" standalone="no"?>
<!DOCTYPE svg PUBLIC "-//W3C//DTD SVG 20010904//EN"
 "http://www.w3.org/TR/2001/REC-SVG-20010904/DTD/svg10.dtd">
<svg version="1.0" xmlns="http://www.w3.org/2000/svg"
 width="500.000000pt" height="500.000000pt" viewBox="0 0 500.000000 500.000000"
 preserveAspectRatio="xMidYMid meet">

<g transform="translate(0.000000,500.000000) scale(0.100000,-0.100000)"
fill="#000000" stroke="none">
<path d="M0 2500 l0 -2500 2500 0 2500 0 0 2500 0 2500 -2500 0 -2500 0 0
-2500z m2710 1666 c578 -106 1068 -502 1281 -1034 258 -647 118 -1353 -366
-1838 -242 -243 -507 -391 -845 -471 -140 -33 -469 -43 -625 -19 -246 37 -522
149 -725 293 -138 98 -329 293 -419 427 -178 268 -267 522 -293 839 -19 235 5
437 80 662 201 608 741 1058 1382 1151 121 17 413 12 530 -10z"/>
<path d="M2255 4160 c-410 -44 -775 -223 -1058 -519 -224 -235 -383 -550 -437
-868 -28 -161 -27 -397 1 -564 137 -810 834 -1399 1654 -1399 364 0 706 113
997 330 465 346 715 885 676 1460 -28 422 -213 816 -518 1103 -256 241 -538
382 -885 441 -113 20 -325 27 -430 16z m336 -40 c316 -31 628 -166 884 -382
339 -286 565 -750 565 -1160 l0 -88 -725 0 -725 0 0 115 0 115 183 0 c206 0
336 -12 407 -35 53 -18 115 -77 126 -120 3 -14 12 -25 20 -25 11 0 14 35 14
195 0 160 -3 195 -14 195 -8 0 -17 -11 -20 -25 -11 -42 -73 -102 -124 -120
-61 -20 -280 -37 -452 -33 l-135 3 -3 389 -2 388 257 -5 c275 -5 324 -12 421
-61 60 -31 134 -109 169 -180 44 -90 57 -76 48 52 -4 59 -10 134 -13 167 l-7
60 -592 3 c-560 2 -593 1 -593 -15 0 -10 14 -26 30 -35 64 -36 65 -43 68 -561
l3 -468 -57 3 c-49 3 -60 7 -78 31 -20 28 -21 38 -21 380 0 378 3 409 51 446
13 10 24 22 24 25 0 3 -33 6 -72 6 l-73 -1 -159 -270 c-87 -148 -162 -271
-165 -273 -4 -3 -81 119 -171 269 l-165 274 -77 1 c-80 0 -93 -6 -58 -27 11
-7 27 -27 37 -45 16 -30 18 -67 18 -395 0 -352 -1 -362 -21 -390 l-21 -28
-293 -3 -293 -2 6 122 c17 323 147 656 357 913 139 170 348 338 541 435 266
134 586 191 900 160z m-476 -1548 c-12 -83 -8 -82 -319 -82 l-274 0 -31 26
c-17 14 -35 42 -41 62 -6 22 -10 171 -10 361 l0 325 164 -270 c90 -148 170
-269 176 -269 7 0 85 122 174 272 l161 272 3 -327 c2 -180 0 -346 -3 -370z
m274 -240 c19 -9 37 -22 39 -29 5 -19 -45 -27 -79 -13 -23 10 -33 10 -42 1 -8
-8 -6 -11 9 -12 80 -3 114 -21 114 -59 0 -42 -38 -65 -111 -65 -47 0 -62 5
-83 24 -14 13 -23 28 -20 32 7 12 61 11 84 -1 10 -5 26 -7 35 -4 25 10 -2 24
-45 24 -42 0 -80 24 -80 49 0 21 37 57 65 64 42 10 81 6 114 -11z m873 8 c36
-10 64 -40 51 -54 -3 -3 -20 -6 -37 -7 l-31 0 35 -12 c69 -24 44 -98 -38 -112
-51 -8 -119 10 -132 35 -17 32 5 36 90 18 8 -2 16 2 18 7 1 6 -18 12 -43 15
-59 8 -82 30 -69 67 15 44 84 63 156 43z m-1867 -60 c20 -33 40 -60 45 -60 5
0 25 27 45 60 l36 60 50 0 49 0 0 -90 0 -90 -39 0 -40 0 -3 53 -3 52 -32 -52
c-28 -45 -37 -53 -63 -53 -26 0 -35 8 -63 53 l-32 52 -3 -52 -3 -53 -40 0 -39
0 0 90 0 90 49 0 50 0 36 -60z m485 40 c0 -17 -8 -19 -67 -22 -87 -4 -99 -26
-16 -30 44 -2 58 -7 58 -18 0 -11 -14 -16 -58 -18 -85 -4 -70 -26 21 -30 64
-3 72 -5 72 -22 0 -19 -8 -20 -115 -20 l-115 0 0 90 0 90 110 0 c102 0 110 -1
110 -20z m286 -13 c13 -16 24 -41 24 -57 0 -16 -11 -41 -24 -57 -23 -27 -28
-28 -135 -31 l-111 -4 0 92 0 92 111 -4 c107 -3 112 -4 135 -31z m584 13 c0
-17 -8 -19 -67 -22 -87 -4 -99 -26 -16 -30 44 -2 58 -7 58 -18 0 -11 -14 -16
-58 -18 -85 -4 -70 -26 21 -30 64 -3 72 -5 72 -22 0 -19 -7 -20 -110 -20
l-110 0 0 90 0 90 105 0 c98 0 105 -1 105 -20z m271 -68 l57 -87 -36 -3 c-24
-2 -40 2 -48 12 -15 22 -116 22 -134 1 -11 -14 -80 -22 -80 -10 0 3 25 43 55
90 53 82 56 85 92 85 37 0 40 -3 94 -88z m549 68 c0 -17 -8 -19 -67 -22 -87
-4 -99 -26 -16 -30 44 -2 58 -7 58 -18 0 -11 -14 -16 -58 -18 -85 -4 -70 -26
21 -30 64 -3 72 -5 72 -22 0 -19 -7 -20 -109 -20 -125 0 -121 -3 -121 90 0 92
-3 90 116 90 97 0 104 -1 104 -20z m-1202 -392 c-11 -52 -30 -82 -63 -104 -14
-9 -25 -23 -25 -30 0 -12 100 -14 629 -14 l628 0 7 92 c3 50 8 93 10 95 1 2
94 2 204 1 l202 -3 -48 -110 c-114 -264 -293 -489 -526 -662 -585 -435 -1396
-427 -1967 19 -111 87 -259 241 -338 353 -61 87 -184 322 -197 378 l-6 27 750
0 750 0 -10 -42z m1042 7 c-45 -46 -117 -81 -205 -100 -88 -18 -520 -21 -559
-4 -30 14 -56 65 -56 108 l0 31 427 0 427 0 -34 -35z"/>
<path d="M3196 2291 c-3 -5 5 -11 19 -13 28 -6 34 6 9 16 -20 8 -22 8 -28 -3z"/>
<path d="M2002 2253 c3 -44 5 -48 31 -51 32 -4 77 21 77 43 0 27 -38 55 -76
55 l-35 0 3 -47z"/>
<path d="M2911 2262 c-12 -22 -6 -32 21 -32 21 0 24 23 4 39 -12 10 -17 8 -25
-7z"/>
</g>
</svg>
